<svg width="20" height="29" viewBox="0 0 20 29" fill="none" xmlns="http://www.w3.org/2000/svg">
<path d="M19.5508 28.1641C19.5508 28.2812 19.5052 28.3854 19.4141 28.4766C19.3359 28.5677 19.2383 28.6393 19.1211 28.6914C19.0039 28.7565 18.8802 28.8151 18.75 28.8672C18.6328 28.9193 18.5286 28.9648 18.4375 29.0039C18.2943 28.9258 18.1445 28.8737 17.9883 28.8477C17.8451 28.8216 17.7148 28.7565 17.5977 28.6523H17.4609C17.2526 28.6523 17.0898 28.6784 16.9727 28.7305C16.7904 28.6654 16.6406 28.5677 16.5234 28.4375C16.4062 28.3203 16.2956 28.1901 16.1914 28.0469C16.0872 27.9167 15.9831 27.7865 15.8789 27.6562C15.7747 27.526 15.6445 27.4154 15.4883 27.3242C15.2539 26.6732 15.0456 26.0156 14.8633 25.3516C14.681 24.6875 14.5443 24.0104 14.4531 23.3203C14.4792 23.2552 14.4987 23.1836 14.5117 23.1055C14.5247 23.0273 14.5312 22.9557 14.5312 22.8906C14.5312 22.8385 14.5182 22.7865 14.4922 22.7344C14.4792 22.6693 14.4401 22.6302 14.375 22.6172C14.4401 22.513 14.4792 22.3958 14.4922 22.2656C14.5182 22.1224 14.5312 21.9922 14.5312 21.875C14.5312 21.6146 14.5052 21.3997 14.4531 21.2305C14.5312 21.1654 14.5638 21.0612 14.5508 20.918C14.5378 20.7617 14.5703 20.651 14.6484 20.5859C14.5833 20.3646 14.5508 20.1497 14.5508 19.9414C14.5508 19.6549 14.5833 19.375 14.6484 19.1016C14.7266 18.8281 14.7656 18.5482 14.7656 18.2617C14.7656 18.1966 14.7591 18.1315 14.7461 18.0664C14.7461 18.0013 14.7396 17.9362 14.7266 17.8711C14.7917 17.6628 14.8503 17.4544 14.9023 17.2461C14.9674 17.0247 15 16.8034 15 16.582C15 16.4258 14.974 16.2956 14.9219 16.1914C15.0911 15.5924 15.2083 15 15.2734 14.4141C15.3516 13.8151 15.4232 13.2096 15.4883 12.5977C15.4753 12.5716 15.4622 12.5521 15.4492 12.5391C15.4362 12.526 15.4297 12.5065 15.4297 12.4805C15.4297 12.4154 15.4622 12.3633 15.5273 12.3242C15.6055 12.2852 15.638 12.2135 15.625 12.1094C15.4688 12.2656 15.3385 12.4479 15.2344 12.6562C15.1432 12.8646 15.0521 13.0729 14.9609 13.2812C14.8828 13.4896 14.7917 13.6979 14.6875 13.9062C14.5964 14.1016 14.4727 14.2773 14.3164 14.4336C14.3034 14.5768 14.2578 14.7135 14.1797 14.8438C14.1146 14.974 14.082 15.1172 14.082 15.2734C14.069 15.2734 14.056 15.2734 14.043 15.2734C14.0299 15.2604 14.0104 15.2539 13.9844 15.2539C13.9323 15.2539 13.8932 15.2865 13.8672 15.3516C13.8542 15.4167 13.8151 15.4362 13.75 15.4102C13.4505 15.9961 13.1185 16.569 12.7539 17.1289C12.4023 17.6888 11.9401 18.138 11.3672 18.4766C11.263 18.4375 11.1654 18.418 11.0742 18.418C10.9049 18.418 10.7357 18.4701 10.5664 18.5742C10.4102 18.6654 10.306 18.7109 10.2539 18.7109C10.1237 18.7109 9.96094 18.6458 9.76562 18.5156C9.58333 18.3724 9.39453 18.2943 9.19922 18.2812C8.99089 18.138 8.8151 17.9948 8.67188 17.8516C8.54167 17.6953 8.33984 17.6042 8.06641 17.5781C7.88411 17.3047 7.70182 17.0443 7.51953 16.7969C7.35026 16.5495 7.18099 16.3086 7.01172 16.0742C6.85547 15.8268 6.71224 15.5664 6.58203 15.293C6.46484 15.0195 6.3737 14.7135 6.30859 14.375C6.32161 14.349 6.32812 14.3229 6.32812 14.2969C6.32812 14.2188 6.28906 14.1862 6.21094 14.1992C6.14583 14.2122 6.11328 14.1732 6.11328 14.082V13.9453C6.11328 13.8411 6.09375 13.75 6.05469 13.6719C6.02865 13.5807 6.02214 13.4831 6.03516 13.3789C5.94401 13.2357 5.8724 13.0859 5.82031 12.9297C5.76823 12.7734 5.67708 12.6367 5.54688 12.5195V12.3438C5.54688 12.2656 5.54036 12.194 5.52734 12.1289C5.52734 12.0508 5.50781 11.9857 5.46875 11.9336C5.44271 11.8685 5.39714 11.8294 5.33203 11.8164C5.31901 11.3477 5.22135 10.8724 5.03906 10.3906C4.86979 9.89583 4.71354 9.42057 4.57031 8.96484C4.46615 9.30339 4.38802 9.64844 4.33594 10C4.28385 10.3385 4.25781 10.6836 4.25781 11.0352V11.3672C4.25781 11.4714 4.27083 11.5755 4.29688 11.6797C4.25781 11.7448 4.19922 11.7904 4.12109 11.8164C4.05599 11.8424 4.01693 11.8945 4.00391 11.9727C3.99089 12.0378 3.98438 12.1029 3.98438 12.168C3.9974 12.2331 3.9974 12.2982 3.98438 12.3633C3.95833 12.6758 3.91927 12.9753 3.86719 13.2617C3.78906 13.6914 3.69792 14.1276 3.59375 14.5703C3.48958 15 3.4375 15.4427 3.4375 15.8984C3.4375 15.9245 3.4375 15.9635 3.4375 16.0156C3.45052 16.0547 3.45703 16.0872 3.45703 16.1133C3.2487 16.2956 3.13802 16.5234 3.125 16.7969C3.11198 17.0703 3.07943 17.3307 3.02734 17.5781C2.96224 17.9427 2.88411 18.3073 2.79297 18.6719C2.70182 19.0234 2.6237 19.388 2.55859 19.7656C2.51953 19.974 2.48698 20.1823 2.46094 20.3906C2.4349 20.5859 2.40885 20.7878 2.38281 20.9961C2.36979 21.1133 2.32422 21.2109 2.24609 21.2891C2.18099 21.3672 2.13542 21.4583 2.10938 21.5625C2.09635 21.6536 2.08984 21.7578 2.08984 21.875C2.10286 21.9792 2.10938 22.0768 2.10938 22.168C2.10938 22.3242 2.09635 22.474 2.07031 22.6172C2.04427 22.7474 1.96615 22.8646 1.83594 22.9688C1.86198 23.3073 1.92057 23.5938 2.01172 23.8281C2.10286 24.0755 2.20703 24.349 2.32422 24.6484H2.8125V24.7266C2.8125 24.8568 2.83203 24.974 2.87109 25.0781C2.92318 25.1823 3.02083 25.2279 3.16406 25.2148C3.15104 25.2669 3.14453 25.332 3.14453 25.4102C3.14453 25.5273 3.16406 25.6315 3.20312 25.7227C3.25521 25.8268 3.29427 25.9375 3.32031 26.0547C3.0599 26.4844 2.77995 26.8034 2.48047 27.0117C2.18099 27.2201 1.77083 27.3242 1.25 27.3242H0.9375C0.872396 27.1159 0.794271 26.9141 0.703125 26.7188C0.611979 26.5234 0.520833 26.3281 0.429688 26.1328C0.351562 25.9375 0.279948 25.7357 0.214844 25.5273C0.16276 25.332 0.136719 25.1237 0.136719 24.9023C0.136719 24.8503 0.143229 24.7982 0.15625 24.7461C0.169271 24.707 0.175781 24.6615 0.175781 24.6094C0.175781 24.5443 0.14974 24.5052 0.0976562 24.4922C0.0455729 24.4792 0.0195312 24.4141 0.0195312 24.2969C0.0195312 24.2057 0.0130208 24.1211 0 24.043C0 23.9648 0 23.8802 0 23.7891C0 23.3594 0.0325521 22.9362 0.0976562 22.5195C0.16276 22.0898 0.208333 21.6602 0.234375 21.2305C0.299479 21.1654 0.332031 21.0807 0.332031 20.9766C0.332031 20.8724 0.364583 20.7878 0.429688 20.7227V20.5859C0.429688 20.3516 0.455729 20.1172 0.507812 19.8828C0.559896 19.6484 0.61849 19.4206 0.683594 19.1992C0.748698 18.9779 0.807292 18.75 0.859375 18.5156C0.911458 18.2812 0.9375 18.0469 0.9375 17.8125V17.5C0.9375 17.4089 0.976562 17.3698 1.05469 17.3828C1.14583 17.3828 1.19792 17.3307 1.21094 17.2266C1.23698 17.0443 1.25 16.8685 1.25 16.6992C1.26302 16.5169 1.28255 16.3346 1.30859 16.1523C1.3737 15.8008 1.44531 15.4492 1.52344 15.0977C1.60156 14.7331 1.64062 14.3685 1.64062 14.0039V13.9453C1.64062 13.9062 1.67318 13.8281 1.73828 13.7109C1.80339 13.5807 1.83594 13.457 1.83594 13.3398C1.83594 13.2487 1.81641 13.1641 1.77734 13.0859C1.79036 13.099 1.81641 13.1055 1.85547 13.1055C1.90755 13.1055 1.9401 13.0924 1.95312 13.0664C1.97917 13.0273 2.01172 12.9948 2.05078 12.9688C2.01172 12.9167 1.99219 12.8646 1.99219 12.8125C1.99219 12.7474 1.9987 12.6888 2.01172 12.6367C2.03776 12.5716 2.05078 12.5065 2.05078 12.4414C2.05078 12.3503 2.00521 12.2852 1.91406 12.2461C2.07031 11.9596 2.18099 11.6536 2.24609 11.3281C2.32422 11.0026 2.3763 10.6706 2.40234 10.332C2.44141 9.99349 2.47396 9.65495 2.5 9.31641C2.52604 8.96484 2.58464 8.63281 2.67578 8.32031C2.64974 8.24219 2.63021 8.15755 2.61719 8.06641C2.61719 7.97526 2.61719 7.89062 2.61719 7.8125C2.61719 7.76042 2.61068 7.70833 2.59766 7.65625C2.58464 7.59115 2.59115 7.53255 2.61719 7.48047C2.61719 7.45443 2.6237 7.42188 2.63672 7.38281L2.67578 7.26562C2.70182 7.17448 2.71484 7.08333 2.71484 6.99219C2.72786 6.88802 2.74089 6.78385 2.75391 6.67969C2.77995 6.38021 2.78646 6.07422 2.77344 5.76172C2.77344 5.44922 2.78646 5.13672 2.8125 4.82422C2.77344 4.77214 2.73438 4.73307 2.69531 4.70703C2.65625 4.66797 2.63021 4.61589 2.61719 4.55078C2.72135 4.36849 2.83203 4.19922 2.94922 4.04297C3.07943 3.8737 3.2487 3.74349 3.45703 3.65234C3.49609 3.79557 3.60026 3.86719 3.76953 3.86719C3.84766 3.86719 3.94531 3.84766 4.0625 3.80859C4.17969 3.76953 4.25781 3.71745 4.29688 3.65234C4.51823 3.73047 4.73958 3.76953 4.96094 3.76953C5.19531 3.75651 5.41016 3.80859 5.60547 3.92578C5.64453 4.12109 5.69661 4.32292 5.76172 4.53125C5.82682 4.73958 5.91797 4.92839 6.03516 5.09766C6.0612 5.26693 6.08724 5.47526 6.11328 5.72266C6.13932 5.95703 6.16536 6.20443 6.19141 6.46484C6.21745 6.71224 6.25651 6.95312 6.30859 7.1875C6.36068 7.40885 6.43229 7.58464 6.52344 7.71484C6.53646 7.94922 6.57552 8.18359 6.64062 8.41797C6.70573 8.65234 6.77734 8.88021 6.85547 9.10156C6.93359 9.3099 6.9987 9.50521 7.05078 9.6875C7.11589 9.86979 7.14844 10.0195 7.14844 10.1367C7.14844 10.2409 7.12891 10.3125 7.08984 10.3516C7.0638 10.3776 7.03776 10.4297 7.01172 10.5078C7.0638 10.651 7.13542 10.7747 7.22656 10.8789C7.31771 10.9701 7.41536 11.0807 7.51953 11.2109C7.71484 11.9531 7.96875 12.6758 8.28125 13.3789C8.59375 14.082 8.97135 14.7591 9.41406 15.4102C9.53125 15.4232 9.6224 15.4557 9.6875 15.5078C9.76562 15.5599 9.88281 15.5729 10.0391 15.5469V15.6836C10.0391 15.8138 10.0651 15.9049 10.1172 15.957C10.2344 16.0352 10.3711 16.0742 10.5273 16.0742C10.6966 16.0742 10.8268 16.0286 10.918 15.9375C11.0221 15.8333 11.1198 15.7161 11.2109 15.5859C11.3021 15.4557 11.3932 15.332 11.4844 15.2148C11.5755 15.0977 11.6992 15.0195 11.8555 14.9805V14.9414C11.8555 14.8372 11.875 14.7526 11.9141 14.6875C11.9661 14.6094 11.9922 14.5247 11.9922 14.4336C12.1354 14.3294 12.2461 14.1992 12.3242 14.043C12.4023 13.8867 12.474 13.7305 12.5391 13.5742C12.6042 13.4049 12.6758 13.2487 12.7539 13.1055C12.8451 12.9622 12.9622 12.8451 13.1055 12.7539C13.2878 12.194 13.5091 11.6732 13.7695 11.1914C14.0299 10.7096 14.3034 10.2214 14.5898 9.72656C14.5898 9.6875 14.5833 9.64844 14.5703 9.60938C14.5573 9.55729 14.5508 9.51172 14.5508 9.47266C14.5508 9.45964 14.5638 9.40104 14.5898 9.29688C14.6549 9.16667 14.7135 9.04297 14.7656 8.92578C14.8177 8.80859 14.8633 8.67839 14.9023 8.53516C15.0326 8.13151 15.1497 7.73438 15.2539 7.34375C15.3711 6.95312 15.5404 6.58203 15.7617 6.23047V5.74219C15.9961 5.27344 16.1589 4.77865 16.25 4.25781C16.3542 3.73698 16.4779 3.22917 16.6211 2.73438C16.6471 2.59115 16.6927 2.44792 16.7578 2.30469C16.8359 2.14844 16.9271 2.03776 17.0312 1.97266C16.9922 1.89453 16.9727 1.81641 16.9727 1.73828C16.9727 1.63411 16.9857 1.54297 17.0117 1.46484C17.0508 1.3737 17.0833 1.28255 17.1094 1.19141C17.0703 1.10026 17.0508 0.983073 17.0508 0.839844C17.0508 0.657552 17.1029 0.488281 17.207 0.332031C17.3112 0.16276 17.4674 0.0520833 17.6758 0C17.806 0.0390625 17.9167 0.104167 18.0078 0.195312C18.099 0.286458 18.1836 0.384115 18.2617 0.488281C18.3529 0.579427 18.444 0.657552 18.5352 0.722656C18.6393 0.77474 18.7695 0.78776 18.9258 0.761719C19.0299 0.957031 19.1016 1.16536 19.1406 1.38672C19.1797 1.59505 19.1992 1.8099 19.1992 2.03125C19.1992 2.33073 19.1732 2.64323 19.1211 2.96875C19.069 3.28125 19.0495 3.60026 19.0625 3.92578C18.9583 4.13411 18.8802 4.36198 18.8281 4.60938C18.7891 4.84375 18.75 5.08464 18.7109 5.33203C18.6719 5.57943 18.6263 5.82031 18.5742 6.05469C18.5221 6.28906 18.431 6.51042 18.3008 6.71875C18.2617 7.30469 18.2161 7.8776 18.1641 8.4375C18.125 8.9974 18.0599 9.55729 17.9688 10.1172L17.793 11.2305C17.7669 11.3216 17.7409 11.4258 17.7148 11.543C17.6888 11.6471 17.6758 11.7383 17.6758 11.8164C17.6758 11.8945 17.6823 11.9792 17.6953 12.0703C17.7083 12.1484 17.7474 12.207 17.8125 12.2461C17.7214 12.3763 17.6562 12.5326 17.6172 12.7148C17.5781 12.8971 17.5391 13.0924 17.5 13.3008L17.4023 13.9062C17.3763 14.1016 17.3242 14.2773 17.2461 14.4336V14.6484C17.2461 15.1693 17.1549 15.7031 16.9727 16.25V16.3477C16.9727 16.4128 16.9661 16.4714 16.9531 16.5234C16.9531 16.5625 16.9531 16.6146 16.9531 16.6797C16.9531 16.7708 16.9792 16.8424 17.0312 16.8945C16.9271 17.2331 16.8294 17.5846 16.7383 17.9492C16.6471 18.3008 16.582 18.6654 16.543 19.043C16.5039 19.5508 16.4974 20.0716 16.5234 20.6055C16.5495 21.1263 16.4844 21.6341 16.3281 22.1289C16.4062 22.3633 16.4583 22.6172 16.4844 22.8906L16.5625 23.7109C16.5885 23.9844 16.6276 24.2448 16.6797 24.4922C16.7448 24.7526 16.862 24.9674 17.0312 25.1367C17.0443 25.1628 17.0508 25.2018 17.0508 25.2539C17.0508 25.3581 17.0247 25.4362 16.9727 25.4883C16.9987 25.6185 17.0443 25.7292 17.1094 25.8203C17.1745 25.9115 17.2396 25.9961 17.3047 26.0742C17.3698 26.1654 17.4219 26.263 17.4609 26.3672C17.513 26.4714 17.5391 26.6016 17.5391 26.7578C17.6432 26.901 17.806 27.0117 18.0273 27.0898C18.2487 27.168 18.4701 27.2461 18.6914 27.3242C18.9258 27.4023 19.1276 27.5 19.2969 27.6172C19.4661 27.7474 19.5508 27.9297 19.5508 28.1641Z" fill="white"/>
</svg>
